REM MD5 38ecc026429a582b8fcf9fd8e83feae0
FILE "Mobile Suit Z-Gundam (Japan) (Demo).bin" BINARY
  TRACK 01 MODE2/2352
    INDEX 01 00:00:00
  TRACK 02 AUDIO
    INDEX 00 03:50:69
    INDEX 01 03:52:69
  TRACK 03 AUDIO
    INDEX 00 04:55:01
    INDEX 01 04:57:01
  TRACK 04 AUDIO
    INDEX 00 05:54:35
    INDEX 01 05:56:35
  TRACK 05 AUDIO
    INDEX 00 07:00:42
    INDEX 01 07:02:42
REM LEADOUT 10:07:42
